<svg viewBox="0 -19 353.81368 353" xmlns="http://www.w3.org/2000/svg"><path d="m174.84375 315.222656c.636719.21875 1.292969.367188 1.957031.453125.625-.097656 1.242188-.246093 1.839844-.445312 100.445313-40.78125 192.632813-128.664063 172.347656-233.242188-4.90625-24.285156-15.863281-44.679687-31.683593-58.972656-15.699219-14.183594-35.515626-21.683594-57.300782-21.683594-25.257812 0-53.109375 10.527344-80.550781 30.445313-2.832031 2.054687-6.675781 2.03125-9.484375-.0625-27.84375-20.773438-55.074219-31.308594-80.929688-31.308594-21.835937 0-41.617187 7.527344-57.207031 21.769531-15.800781 14.429688-26.625 35.097657-31.300781 59.75-14.625 76.253907 32.988281 177.925781 172.3125 233.296875zm0 0"></path></svg>