<svg version="1.1" id="Capa_1" xmlns="http://www.w3.org/2000/svg" xmlns:xlink="http://www.w3.org/1999/xlink" x="0px" y="0px" viewBox="0 0 511.993 511.993" style="enable-background:new 0 0 511.993 511.993;" xml:space="preserve"><g><g><path d="M472.513,110.243c-43.59-53.679-115.097-85.28-201.362-88.981c-91.803-3.967-173.4,24.776-223.902,78.793 C12.409,137.327-4.07,182.381,0.855,226.92c9.637,87.419,91.669,131.062,122.125,144.364l-1.482,103.197 c-0.098,6.753,3.976,12.894,10.258,15.423c1.979,0.799,4.055,1.189,6.114,1.189c4.455,0,8.812-1.81,11.971-5.191l87.481-93.613 c6.176-6.62,5.83-16.985-0.781-23.153c-6.611-6.194-16.985-5.839-23.152,0.781l-58.534,62.625l1.038-72.013 c0.106-7.037-4.322-13.364-10.968-15.707c-1.012-0.364-102.176-36.863-111.503-121.495c-3.86-34.893,9.549-70.727,37.759-100.898 c43.971-47.024,116.331-71.969,198.567-68.437c76.77,3.292,139.749,30.607,177.331,76.903 c25.043,30.829,36.26,67.425,30.811,100.393c-13.746,83.097-90.374,132.712-204.965,132.712c-9.052,0-16.39,7.33-16.39,16.382 s7.339,16.39,16.39,16.39c130.023,0,220.947-61.364,237.285-160.133C517.194,194.423,503.457,148.348,472.513,110.243z"></path></g></g></svg>